<svg id="visual" viewBox="0 0 900 600" width="900" height="600" xmlns="http://www.w3.org/2000/svg" xmlns:xlink="http://www.w3.org/1999/xlink" version="1.1"><rect x="0" y="0" width="900" height="600" fill="#001220"></rect><defs><linearGradient id="grad1_0" x1="33.3%" y1="0%" x2="100%" y2="100%"><stop offset="20%" stop-color="#001220" stop-opacity="1"></stop><stop offset="80%" stop-color="#001220" stop-opacity="1"></stop></linearGradient></defs><defs><linearGradient id="grad2_0" x1="0%" y1="0%" x2="66.7%" y2="100%"><stop offset="20%" stop-color="#001220" stop-opacity="1"></stop><stop offset="80%" stop-color="#001220" stop-opacity="1"></stop></linearGradient></defs><g transform="translate(900, 0)"><path d="M0 297.5C-36.5 287.3 -73.1 277.1 -109.4 264.2C-145.8 251.4 -182 235.8 -210.3 210.3C-238.7 184.9 -259.3 149.6 -272.5 112.9C-285.8 76.2 -291.6 38.1 -297.5 0L0 0Z" fill="#3D70B8"></path></g><g transform="translate(0, 600)"><path d="M0 -297.5C41.2 -296.2 82.3 -295 113.8 -274.8C145.3 -254.6 167.2 -215.5 182.4 -182.4C197.7 -149.4 206.4 -122.4 224.5 -93C242.6 -63.6 270 -31.8 297.5 0L0 0Z" fill="#3D70B8"></path></g></svg>